G04 #@! TF.FileFunction,Copper,L1,Top,Signal*
%FSLAX46Y46*%
G04 Gerber Fmt 4.6, Leading zero omitted, Abs format (unit mm)*
G04 Created by KiCad (PCBNEW 4.0.7) date Thu Jun  7 20:11:30 2018*
%MOMM*%
%LPD*%
G01*
G04 APERTURE LIST*
%ADD10C,0.100000*%
%ADD11C,0.300000*%
%ADD12R,1.600000X1.600000*%
%ADD13C,1.600000*%
%ADD14C,2.000000*%
%ADD15R,1.700000X1.700000*%
%ADD16O,1.700000X1.700000*%
%ADD17R,2.000000X2.000000*%
%ADD18R,1.800000X1.800000*%
%ADD19C,1.800000*%
%ADD20R,2.200000X2.200000*%
%ADD21C,5.000000*%
%ADD22C,1.200000*%
%ADD23C,2.000000*%
%ADD24C,1.000000*%
%ADD25C,0.500000*%
G04 APERTURE END LIST*
D10*
D11*
X113708571Y-116084284D02*
X112208571Y-116084284D01*
X112208571Y-115512856D01*
X112280000Y-115369998D01*
X112351429Y-115298570D01*
X112494286Y-115227141D01*
X112708571Y-115227141D01*
X112851429Y-115298570D01*
X112922857Y-115369998D01*
X112994286Y-115512856D01*
X112994286Y-116084284D01*
X113637143Y-114655713D02*
X113708571Y-114441427D01*
X113708571Y-114084284D01*
X113637143Y-113941427D01*
X113565714Y-113869998D01*
X113422857Y-113798570D01*
X113280000Y-113798570D01*
X113137143Y-113869998D01*
X113065714Y-113941427D01*
X112994286Y-114084284D01*
X112922857Y-114369998D01*
X112851429Y-114512856D01*
X112780000Y-114584284D01*
X112637143Y-114655713D01*
X112494286Y-114655713D01*
X112351429Y-114584284D01*
X112280000Y-114512856D01*
X112208571Y-114369998D01*
X112208571Y-114012856D01*
X112280000Y-113798570D01*
X112137143Y-112084285D02*
X114065714Y-113369999D01*
X112351429Y-111655713D02*
X112280000Y-111584284D01*
X112208571Y-111441427D01*
X112208571Y-111084284D01*
X112280000Y-110941427D01*
X112351429Y-110869998D01*
X112494286Y-110798570D01*
X112637143Y-110798570D01*
X112851429Y-110869998D01*
X113708571Y-111727141D01*
X113708571Y-110798570D01*
X113137143Y-110155713D02*
X113137143Y-109012856D01*
X113565714Y-107441427D02*
X113637143Y-107512856D01*
X113708571Y-107727142D01*
X113708571Y-107869999D01*
X113637143Y-108084284D01*
X113494286Y-108227142D01*
X113351429Y-108298570D01*
X113065714Y-108369999D01*
X112851429Y-108369999D01*
X112565714Y-108298570D01*
X112422857Y-108227142D01*
X112280000Y-108084284D01*
X112208571Y-107869999D01*
X112208571Y-107727142D01*
X112280000Y-107512856D01*
X112351429Y-107441427D01*
X113708571Y-106012856D02*
X113708571Y-106869999D01*
X113708571Y-106441427D02*
X112208571Y-106441427D01*
X112422857Y-106584284D01*
X112565714Y-106727142D01*
X112637143Y-106869999D01*
X112351429Y-105441428D02*
X112280000Y-105369999D01*
X112208571Y-105227142D01*
X112208571Y-104869999D01*
X112280000Y-104727142D01*
X112351429Y-104655713D01*
X112494286Y-104584285D01*
X112637143Y-104584285D01*
X112851429Y-104655713D01*
X113708571Y-105512856D01*
X113708571Y-104584285D01*
X112851429Y-103727142D02*
X112780000Y-103870000D01*
X112708571Y-103941428D01*
X112565714Y-104012857D01*
X112494286Y-104012857D01*
X112351429Y-103941428D01*
X112280000Y-103870000D01*
X112208571Y-103727142D01*
X112208571Y-103441428D01*
X112280000Y-103298571D01*
X112351429Y-103227142D01*
X112494286Y-103155714D01*
X112565714Y-103155714D01*
X112708571Y-103227142D01*
X112780000Y-103298571D01*
X112851429Y-103441428D01*
X112851429Y-103727142D01*
X112922857Y-103870000D01*
X112994286Y-103941428D01*
X113137143Y-104012857D01*
X113422857Y-104012857D01*
X113565714Y-103941428D01*
X113637143Y-103870000D01*
X113708571Y-103727142D01*
X113708571Y-103441428D01*
X113637143Y-103298571D01*
X113565714Y-103227142D01*
X113422857Y-103155714D01*
X113137143Y-103155714D01*
X112994286Y-103227142D01*
X112922857Y-103298571D01*
X112851429Y-103441428D01*
X116248571Y-113655712D02*
X114748571Y-113655712D01*
X115820000Y-113155712D01*
X114748571Y-112655712D01*
X116248571Y-112655712D01*
X115820000Y-112012855D02*
X115820000Y-111298569D01*
X116248571Y-112155712D02*
X114748571Y-111655712D01*
X116248571Y-111155712D01*
X115820000Y-110727141D02*
X115820000Y-110012855D01*
X116248571Y-110869998D02*
X114748571Y-110369998D01*
X116248571Y-109869998D01*
X114891429Y-108298570D02*
X114820000Y-108227141D01*
X114748571Y-108084284D01*
X114748571Y-107727141D01*
X114820000Y-107584284D01*
X114891429Y-107512855D01*
X115034286Y-107441427D01*
X115177143Y-107441427D01*
X115391429Y-107512855D01*
X116248571Y-108369998D01*
X116248571Y-107441427D01*
X114748571Y-106512856D02*
X114748571Y-106369999D01*
X114820000Y-106227142D01*
X114891429Y-106155713D01*
X115034286Y-106084284D01*
X115320000Y-106012856D01*
X115677143Y-106012856D01*
X115962857Y-106084284D01*
X116105714Y-106155713D01*
X116177143Y-106227142D01*
X116248571Y-106369999D01*
X116248571Y-106512856D01*
X116177143Y-106655713D01*
X116105714Y-106727142D01*
X115962857Y-106798570D01*
X115677143Y-106869999D01*
X115320000Y-106869999D01*
X115034286Y-106798570D01*
X114891429Y-106727142D01*
X114820000Y-106655713D01*
X114748571Y-106512856D01*
X116248571Y-104584285D02*
X116248571Y-105441428D01*
X116248571Y-105012856D02*
X114748571Y-105012856D01*
X114962857Y-105155713D01*
X115105714Y-105298571D01*
X115177143Y-105441428D01*
X115391429Y-103727142D02*
X115320000Y-103870000D01*
X115248571Y-103941428D01*
X115105714Y-104012857D01*
X115034286Y-104012857D01*
X114891429Y-103941428D01*
X114820000Y-103870000D01*
X114748571Y-103727142D01*
X114748571Y-103441428D01*
X114820000Y-103298571D01*
X114891429Y-103227142D01*
X115034286Y-103155714D01*
X115105714Y-103155714D01*
X115248571Y-103227142D01*
X115320000Y-103298571D01*
X115391429Y-103441428D01*
X115391429Y-103727142D01*
X115462857Y-103870000D01*
X115534286Y-103941428D01*
X115677143Y-104012857D01*
X115962857Y-104012857D01*
X116105714Y-103941428D01*
X116177143Y-103870000D01*
X116248571Y-103727142D01*
X116248571Y-103441428D01*
X116177143Y-103298571D01*
X116105714Y-103227142D01*
X115962857Y-103155714D01*
X115677143Y-103155714D01*
X115534286Y-103227142D01*
X115462857Y-103298571D01*
X115391429Y-103441428D01*
D12*
X102775000Y-136235000D03*
D13*
X102775000Y-138735000D03*
D14*
X98330000Y-151475000D03*
X98330000Y-146475000D03*
D12*
X113570000Y-133060000D03*
D13*
X116070000Y-133060000D03*
D14*
X113570000Y-141315000D03*
X113570000Y-136315000D03*
D15*
X113570000Y-128615000D03*
D16*
X113570000Y-126075000D03*
D17*
X95790000Y-146395000D03*
X95790000Y-151475000D03*
X102870000Y-107950000D03*
X102870000Y-105410000D03*
D18*
X106585000Y-110200000D03*
D19*
X109125000Y-110200000D03*
D18*
X106585000Y-105120000D03*
D19*
X109125000Y-105120000D03*
X107190000Y-147685000D03*
X109790000Y-147685000D03*
X111890000Y-145185000D03*
X105090000Y-145185000D03*
X105090000Y-147685000D03*
X111890000Y-147685000D03*
D20*
X101632000Y-149697000D03*
X101632000Y-151729000D03*
X101632000Y-150713000D03*
X115348000Y-149697000D03*
X115348000Y-151729000D03*
X115348000Y-150713000D03*
X107220000Y-151475000D03*
X109760000Y-151475000D03*
X108490000Y-151475000D03*
D17*
X95250000Y-105410000D03*
D14*
X97790000Y-105410000D03*
X100330000Y-105410000D03*
D18*
X88900000Y-107950000D03*
D19*
X88900000Y-110720000D03*
X88900000Y-113490000D03*
X88900000Y-116260000D03*
X88900000Y-119030000D03*
X88900000Y-121800000D03*
X88900000Y-124570000D03*
X88900000Y-127340000D03*
X88900000Y-130110000D03*
X88900000Y-132880000D03*
X88900000Y-135650000D03*
X88900000Y-138420000D03*
X88900000Y-141190000D03*
X86060000Y-109335000D03*
X86060000Y-112105000D03*
X86060000Y-114875000D03*
X86060000Y-117645000D03*
X86060000Y-120415000D03*
X86060000Y-123185000D03*
X86060000Y-125955000D03*
X86060000Y-128725000D03*
X86060000Y-131495000D03*
X86060000Y-134265000D03*
X86060000Y-137035000D03*
X86060000Y-139805000D03*
D21*
X88600000Y-101020000D03*
X88600000Y-148120000D03*
D15*
X107855000Y-133060000D03*
D16*
X110395000Y-133060000D03*
D14*
X108585000Y-139700000D03*
X106045000Y-137160000D03*
D17*
X111125000Y-137160000D03*
D22*
X98425000Y-119380000D03*
X110490000Y-120015000D03*
X100235000Y-143855000D03*
X110395000Y-129250000D03*
X100870000Y-141315000D03*
X111030000Y-130520000D03*
X93885000Y-119090000D03*
X93980000Y-123825000D03*
X92615000Y-121630000D03*
X92710000Y-124460000D03*
X93250000Y-114645000D03*
X98425000Y-122555000D03*
X95250000Y-123190000D03*
X92615000Y-140045000D03*
X92710000Y-136906000D03*
X96774000Y-122682000D03*
X104140000Y-121920000D03*
X97155000Y-127000000D03*
X104140000Y-124460000D03*
X93980000Y-128905000D03*
X107315000Y-125095000D03*
X94488000Y-134112000D03*
X94520000Y-140045000D03*
X108585000Y-125730000D03*
D23*
X106680000Y-116840000D02*
X106680000Y-110295000D01*
X104140000Y-119380000D02*
X106680000Y-116840000D01*
X98425000Y-119380000D02*
X104140000Y-119380000D01*
X106680000Y-110295000D02*
X106585000Y-110200000D01*
D24*
X110490000Y-120015000D02*
X110490000Y-127000000D01*
X112105000Y-128615000D02*
X113570000Y-128615000D01*
X110490000Y-127000000D02*
X112105000Y-128615000D01*
D25*
X112935000Y-128615000D02*
X113570000Y-128615000D01*
X99600000Y-133060000D02*
X99600000Y-143220000D01*
X103410000Y-129250000D02*
X99600000Y-133060000D01*
X110395000Y-129250000D02*
X103410000Y-129250000D01*
X99600000Y-143220000D02*
X100235000Y-143855000D01*
X104045000Y-130520000D02*
X111030000Y-130520000D01*
X100870000Y-133695000D02*
X104045000Y-130520000D01*
X100870000Y-133695000D02*
X100870000Y-141315000D01*
X93885000Y-119090000D02*
X93980000Y-119185000D01*
X93980000Y-119185000D02*
X93980000Y-123825000D01*
X88900000Y-119030000D02*
X88900000Y-119380000D01*
X92710000Y-121725000D02*
X92710000Y-124460000D01*
X92615000Y-121630000D02*
X92710000Y-121725000D01*
X88900000Y-121800000D02*
X89415000Y-121800000D01*
X98425000Y-122555000D02*
X96425000Y-120555000D01*
X96425000Y-117820000D02*
X93250000Y-114645000D01*
X96425000Y-120555000D02*
X96425000Y-117820000D01*
X88900000Y-113490000D02*
X89360000Y-113490000D01*
X92615000Y-140045000D02*
X91440000Y-138870000D01*
X91440000Y-138870000D02*
X91440000Y-127250000D01*
X94270000Y-126075000D02*
X95250000Y-125095000D01*
X92615000Y-126075000D02*
X94270000Y-126075000D01*
X91440000Y-127250000D02*
X92615000Y-126075000D01*
X95250000Y-125095000D02*
X95250000Y-123190000D01*
X95250000Y-125095000D02*
X95250000Y-123190000D01*
X92710000Y-136906000D02*
X92710000Y-127762000D01*
X92710000Y-127762000D02*
X93218000Y-127254000D01*
X93218000Y-127254000D02*
X94742000Y-127254000D01*
X94742000Y-127254000D02*
X96774000Y-125222000D01*
X96774000Y-125222000D02*
X96774000Y-122682000D01*
X104140000Y-121920000D02*
X102870000Y-123190000D01*
X102870000Y-123190000D02*
X100965000Y-123190000D01*
X100965000Y-123190000D02*
X97155000Y-127000000D01*
X101600000Y-124460000D02*
X104140000Y-124460000D01*
X97155000Y-128905000D02*
X101600000Y-124460000D01*
X93980000Y-128905000D02*
X97155000Y-128905000D01*
X106680000Y-125730000D02*
X107315000Y-125095000D01*
X106680000Y-125730000D02*
X102870000Y-125730000D01*
X94488000Y-134112000D02*
X102870000Y-125730000D01*
X94520000Y-140045000D02*
X96520000Y-138045000D01*
X96520000Y-138045000D02*
X96520000Y-133985000D01*
X96520000Y-133985000D02*
X103795000Y-126710000D01*
X103795000Y-126710000D02*
X107605000Y-126710000D01*
X107605000Y-126710000D02*
X108585000Y-125730000D01*
M02*
