G04 #@! TF.FileFunction,Other,User*
%FSLAX46Y46*%
G04 Gerber Fmt 4.6, Leading zero omitted, Abs format (unit mm)*
G04 Created by KiCad (PCBNEW 4.0.7) date Thu Jun  7 20:11:30 2018*
%MOMM*%
%LPD*%
G01*
G04 APERTURE LIST*
%ADD10C,0.100000*%
%ADD11C,0.300000*%
G04 APERTURE END LIST*
D10*
D11*
X129711429Y-122345001D02*
X129711429Y-121630715D01*
X128997143Y-121559286D01*
X129068571Y-121630715D01*
X129140000Y-121773572D01*
X129140000Y-122130715D01*
X129068571Y-122273572D01*
X128997143Y-122345001D01*
X128854286Y-122416429D01*
X128497143Y-122416429D01*
X128354286Y-122345001D01*
X128282857Y-122273572D01*
X128211429Y-122130715D01*
X128211429Y-121773572D01*
X128282857Y-121630715D01*
X128354286Y-121559286D01*
X129711429Y-122916429D02*
X129711429Y-123845000D01*
X129140000Y-123345000D01*
X129140000Y-123559286D01*
X129068571Y-123702143D01*
X128997143Y-123773572D01*
X128854286Y-123845000D01*
X128497143Y-123845000D01*
X128354286Y-123773572D01*
X128282857Y-123702143D01*
X128211429Y-123559286D01*
X128211429Y-123130714D01*
X128282857Y-122987857D01*
X128354286Y-122916429D01*
X128354286Y-124487857D02*
X128282857Y-124559285D01*
X128211429Y-124487857D01*
X128282857Y-124416428D01*
X128354286Y-124487857D01*
X128211429Y-124487857D01*
X129711429Y-125059286D02*
X129711429Y-125987857D01*
X129140000Y-125487857D01*
X129140000Y-125702143D01*
X129068571Y-125845000D01*
X128997143Y-125916429D01*
X128854286Y-125987857D01*
X128497143Y-125987857D01*
X128354286Y-125916429D01*
X128282857Y-125845000D01*
X128211429Y-125702143D01*
X128211429Y-125273571D01*
X128282857Y-125130714D01*
X128354286Y-125059286D01*
X129211429Y-127273571D02*
X128211429Y-127273571D01*
X129782857Y-126916428D02*
X128711429Y-126559285D01*
X128711429Y-127487857D01*
X129711429Y-128344999D02*
X129711429Y-128487856D01*
X129640000Y-128630713D01*
X129568571Y-128702142D01*
X129425714Y-128773571D01*
X129140000Y-128844999D01*
X128782857Y-128844999D01*
X128497143Y-128773571D01*
X128354286Y-128702142D01*
X128282857Y-128630713D01*
X128211429Y-128487856D01*
X128211429Y-128344999D01*
X128282857Y-128202142D01*
X128354286Y-128130713D01*
X128497143Y-128059285D01*
X128782857Y-127987856D01*
X129140000Y-127987856D01*
X129425714Y-128059285D01*
X129568571Y-128130713D01*
X129640000Y-128202142D01*
X129711429Y-128344999D01*
X128211429Y-130630713D02*
X129211429Y-130630713D01*
X128425714Y-131059284D01*
X129211429Y-131487856D01*
X128211429Y-131487856D01*
X128211429Y-132202142D02*
X129211429Y-132202142D01*
X128425714Y-132630713D01*
X129211429Y-133059285D01*
X128211429Y-133059285D01*
X127540000Y-100675000D02*
X127540000Y-154015000D01*
X74200000Y-100675000D02*
X130240000Y-100675000D01*
X74200000Y-154015000D02*
X130240000Y-154015000D01*
X127540000Y-154015000D02*
X126953579Y-152888496D01*
X127540000Y-154015000D02*
X128126421Y-152888496D01*
X127540000Y-100675000D02*
X126953579Y-101801504D01*
X127540000Y-100675000D02*
X128126421Y-101801504D01*
X94377858Y-90883571D02*
X95306429Y-90883571D01*
X94806429Y-91455000D01*
X95020715Y-91455000D01*
X95163572Y-91526429D01*
X95235001Y-91597857D01*
X95306429Y-91740714D01*
X95306429Y-92097857D01*
X95235001Y-92240714D01*
X95163572Y-92312143D01*
X95020715Y-92383571D01*
X94592143Y-92383571D01*
X94449286Y-92312143D01*
X94377858Y-92240714D01*
X96592143Y-91383571D02*
X96592143Y-92383571D01*
X96235000Y-90812143D02*
X95877857Y-91883571D01*
X96806429Y-91883571D01*
X97377857Y-92240714D02*
X97449285Y-92312143D01*
X97377857Y-92383571D01*
X97306428Y-92312143D01*
X97377857Y-92240714D01*
X97377857Y-92383571D01*
X98020714Y-91026429D02*
X98092143Y-90955000D01*
X98235000Y-90883571D01*
X98592143Y-90883571D01*
X98735000Y-90955000D01*
X98806429Y-91026429D01*
X98877857Y-91169286D01*
X98877857Y-91312143D01*
X98806429Y-91526429D01*
X97949286Y-92383571D01*
X98877857Y-92383571D01*
X99592142Y-92383571D02*
X99877857Y-92383571D01*
X100020714Y-92312143D01*
X100092142Y-92240714D01*
X100235000Y-92026429D01*
X100306428Y-91740714D01*
X100306428Y-91169286D01*
X100235000Y-91026429D01*
X100163571Y-90955000D01*
X100020714Y-90883571D01*
X99735000Y-90883571D01*
X99592142Y-90955000D01*
X99520714Y-91026429D01*
X99449285Y-91169286D01*
X99449285Y-91526429D01*
X99520714Y-91669286D01*
X99592142Y-91740714D01*
X99735000Y-91812143D01*
X100020714Y-91812143D01*
X100163571Y-91740714D01*
X100235000Y-91669286D01*
X100306428Y-91526429D01*
X101234999Y-90883571D02*
X101377856Y-90883571D01*
X101520713Y-90955000D01*
X101592142Y-91026429D01*
X101663571Y-91169286D01*
X101734999Y-91455000D01*
X101734999Y-91812143D01*
X101663571Y-92097857D01*
X101592142Y-92240714D01*
X101520713Y-92312143D01*
X101377856Y-92383571D01*
X101234999Y-92383571D01*
X101092142Y-92312143D01*
X101020713Y-92240714D01*
X100949285Y-92097857D01*
X100877856Y-91812143D01*
X100877856Y-91455000D01*
X100949285Y-91169286D01*
X101020713Y-91026429D01*
X101092142Y-90955000D01*
X101234999Y-90883571D01*
X103520713Y-92383571D02*
X103520713Y-91383571D01*
X103949284Y-92169286D01*
X104377856Y-91383571D01*
X104377856Y-92383571D01*
X105092142Y-92383571D02*
X105092142Y-91383571D01*
X105520713Y-92169286D01*
X105949285Y-91383571D01*
X105949285Y-92383571D01*
X117380000Y-93055000D02*
X83090000Y-93055000D01*
X117380000Y-164175000D02*
X117380000Y-90355000D01*
X83090000Y-164175000D02*
X83090000Y-90355000D01*
X83090000Y-93055000D02*
X84216504Y-92468579D01*
X83090000Y-93055000D02*
X84216504Y-93641421D01*
X117380000Y-93055000D02*
X116253496Y-92468579D01*
X117380000Y-93055000D02*
X116253496Y-93641421D01*
M02*
