M48
;DRILL file {KiCad 4.0.7} date Thu Jun  7 20:11:32 2018
;FORMAT={-:-/ absolute / metric / decimal}
FMAT,2
METRIC,TZ
T1C0.600
T2C0.600
T3C0.600
T4C0.600
T5C0.600
%
G90
G05
M71
T1
X101.632Y-149.697
X101.632Y-150.713
X101.632Y-151.729
X107.22Y-151.475
X108.49Y-151.475
X109.76Y-151.475
X115.348Y-149.697
X115.348Y-150.713
X115.348Y-151.729
T2
X92.615Y-121.63
X92.615Y-140.045
X92.71Y-124.46
X92.71Y-136.906
X93.25Y-114.645
X93.885Y-119.09
X93.98Y-123.825
X93.98Y-128.905
X94.488Y-134.112
X94.52Y-140.045
X95.25Y-123.19
X96.774Y-122.682
X97.155Y-127.
X98.33Y-146.475
X98.33Y-151.475
X98.425Y-119.38
X98.425Y-122.555
X100.235Y-143.855
X100.87Y-141.315
X102.775Y-136.235
X102.775Y-138.735
X104.14Y-121.92
X104.14Y-124.46
X106.045Y-137.16
X107.315Y-125.095
X108.585Y-125.73
X108.585Y-139.7
X110.395Y-129.25
X110.49Y-120.015
X111.03Y-130.52
X111.125Y-137.16
X113.57Y-133.06
X113.57Y-136.315
X113.57Y-141.315
X116.07Y-133.06
T3
X105.09Y-145.185
X105.09Y-147.685
X106.585Y-105.12
X106.585Y-110.2
X107.19Y-147.685
X109.125Y-105.12
X109.125Y-110.2
X109.79Y-147.685
X111.89Y-145.185
X111.89Y-147.685
T4
X86.06Y-109.335
X86.06Y-112.105
X86.06Y-114.875
X86.06Y-117.645
X86.06Y-120.415
X86.06Y-123.185
X86.06Y-125.955
X86.06Y-128.725
X86.06Y-131.495
X86.06Y-134.265
X86.06Y-137.035
X86.06Y-139.805
X88.9Y-107.95
X88.9Y-110.72
X88.9Y-113.49
X88.9Y-116.26
X88.9Y-119.03
X88.9Y-121.8
X88.9Y-124.57
X88.9Y-127.34
X88.9Y-130.11
X88.9Y-132.88
X88.9Y-135.65
X88.9Y-138.42
X88.9Y-141.19
X95.25Y-105.41
X95.79Y-146.395
X95.79Y-151.475
X97.79Y-105.41
X100.33Y-105.41
X102.87Y-105.41
X102.87Y-107.95
X107.855Y-133.06
X110.395Y-133.06
X113.57Y-126.075
X113.57Y-128.615
T5
X88.6Y-101.02
X88.6Y-148.12
T0
M30
